<svg width="16" height="16" viewBox="0 0 16 16" xmlns="http://www.w3.org/2000/svg">
  <path d="M6.62828 8.06341H9.05403V9.03781C9.05403 9.24305 9.14434 9.38311 9.32497 9.45799C9.5056 9.53285 9.66921 9.49697 9.8158 9.35037L11.3244 7.84179C11.5034 7.66274 11.5922 7.45358 11.5906 7.21432C11.589 6.97507 11.5003 6.76591 11.3244 6.58686L9.8158 5.07826C9.66921 4.93167 9.5056 4.8958 9.32497 4.97067C9.14434 5.04554 9.05403 5.18559 9.05403 5.39083V6.36993H5.78154C5.54327 6.36993 5.34259 6.45149 5.17948 6.61461C5.01636 6.77772 4.9348 6.9784 4.9348 7.21667V9.56431C4.9348 9.80256 5.01636 10.0033 5.17948 10.1664C5.34259 10.3295 5.54327 10.411 5.78154 10.411C6.01981 10.411 6.2205 10.3295 6.3836 10.1664C6.54672 10.0033 6.62828 9.80256 6.62828 9.56431V8.06341ZM7.99948 16C7.77679 16 7.5572 15.956 7.34071 15.8681C7.12423 15.7801 6.92646 15.6466 6.74741 15.4675L0.532471 9.25259C0.353403 9.07353 0.219891 8.87599 0.131934 8.65996C0.0439782 8.44392 0 8.22416 0 8.00068C0 7.77719 0.0439782 7.55799 0.131934 7.34307C0.219904 7.12815 0.353416 6.93116 0.532471 6.7521L6.74741 0.537165C6.92624 0.35811 7.1237 0.223819 7.33979 0.134291C7.55587 0.0447636 7.77569 0 7.99924 0C8.22278 0 8.44222 0.0447636 8.65756 0.134291C8.87291 0.223819 9.06969 0.35811 9.2479 0.537165L15.4628 6.7521C15.6419 6.9304 15.7762 7.12728 15.8657 7.34273C15.9552 7.55818 16 7.77734 16 8.00023C16 8.22311 15.9552 8.44278 15.8657 8.65923C15.7762 8.87568 15.6419 9.07347 15.4628 9.25259L9.2479 15.4675C9.06884 15.6466 8.87168 15.7801 8.65642 15.8681C8.44116 15.956 8.22218 16 7.99948 16ZM4.89723 11.1028L7.99765 14.2079L14.2032 8.00235L7.99765 1.7968L1.7921 8.00235L4.89723 11.1028Z" />
</svg>