<svg width="16" height="16" viewBox="0 0 16 16" xmlns="http://www.w3.org/2000/svg">
  <path d="M14.9203 16C13.0259 16 11.1812 15.578 9.38628 14.734C7.59133 13.8901 6.0002 12.7744 4.61289 11.3871C3.22558 9.99981 2.10994 8.40868 1.26596 6.61373C0.421987 4.81878 0 2.97412 0 1.07973C0 0.770249 0.102581 0.512919 0.307743 0.307743C0.512906 0.102581 0.770228 0 1.07971 0H4.5973C4.87999 0 5.12186 0.0808353 5.32292 0.242506C5.524 0.404191 5.64943 0.621176 5.69923 0.893459L6.25942 3.82865C6.30227 4.08707 6.29865 4.31871 6.24855 4.52355C6.19843 4.72841 6.08907 4.90994 5.92047 5.06815L3.79649 7.15761C4.37764 8.13899 5.09887 9.05947 5.96018 9.91905C6.82149 10.7786 7.76663 11.5228 8.7956 12.1515L10.8761 10.0866C11.0447 9.92149 11.2514 9.80197 11.4963 9.72806C11.7412 9.65416 11.9911 9.64037 12.2461 9.6867L15.1065 10.28C15.3823 10.3443 15.6002 10.4707 15.7601 10.6593C15.92 10.848 16 11.0802 16 11.3559V14.9151C16 15.2246 15.8974 15.4828 15.6923 15.6896C15.4871 15.8965 15.2298 16 14.9203 16Z" />
</svg>
