<svg width="16" height="16" viewBox="0 0 16 16" xmlns="http://www.w3.org/2000/svg">
  <path fill="#0662BB" d="M8 16C7.77831 16 7.59248 15.925 7.44251 15.775C7.29254 15.6251 7.21756 15.4393 7.21756 15.2176V14.5639C5.71304 14.3935 4.41522 13.7613 3.3241 12.6673C2.23298 11.5733 1.60364 10.2784 1.4361 8.78244H0.78244C0.560742 8.78244 0.374911 8.70746 0.224947 8.5575C0.0749823 8.40752 0 8.22169 0 8C0 7.77831 0.0749763 7.59248 0.224929 7.44251C0.374905 7.29254 0.560742 7.21756 0.78244 7.21756H1.4361C1.6065 5.71304 2.2387 4.41522 3.33268 3.3241C4.42667 2.23298 5.72162 1.60364 7.21756 1.4361V0.78244C7.21756 0.560742 7.29254 0.374911 7.44251 0.224947C7.59248 0.0749821 7.77831 0 8 0C8.22169 0 8.40752 0.0749821 8.55749 0.224947C8.70746 0.374911 8.78244 0.560742 8.78244 0.78244V1.4361C10.2784 1.60364 11.5733 2.23298 12.6673 3.3241C13.7613 4.41522 14.3935 5.71304 14.5639 7.21756H15.2176C15.4393 7.21756 15.6251 7.29254 15.7751 7.44251C15.925 7.59248 16 7.77831 16 8C16 8.22169 15.925 8.40752 15.7751 8.5575C15.6251 8.70746 15.4393 8.78244 15.2176 8.78244H14.5639C14.3964 10.2784 13.767 11.5733 12.6759 12.6673C11.5848 13.7613 10.287 14.3935 8.78244 14.5639V15.2176C8.78244 15.4393 8.70746 15.6251 8.55749 15.775C8.40752 15.925 8.22169 16 8 16ZM8 12.9748C9.37678 12.9748 10.5501 12.4899 11.52 11.52C12.4899 10.5501 12.9748 9.37678 12.9748 8C12.9748 6.62323 12.4899 5.44989 11.52 4.48C10.5501 3.51012 9.37678 3.02518 8 3.02518C6.62323 3.02518 5.44989 3.51012 4.48 4.48C3.51012 5.44989 3.02518 6.62323 3.02518 8C3.02518 9.37678 3.51012 10.5501 4.48 11.52C5.44989 12.4899 6.62323 12.9748 8 12.9748ZM8 10.8722C7.21015 10.8722 6.53398 10.591 5.97151 10.0285C5.40904 9.46602 5.1278 8.78985 5.1278 8C5.1278 7.21015 5.40904 6.53398 5.97151 5.97151C6.53398 5.40904 7.21015 5.1278 8 5.1278C8.78985 5.1278 9.46602 5.40904 10.0285 5.97151C10.591 6.53398 10.8722 7.21015 10.8722 8C10.8722 8.78985 10.591 9.46602 10.0285 10.0285C9.46602 10.591 8.78985 10.8722 8 10.8722ZM7.99935 9.30303C8.35751 9.30303 8.66432 9.1755 8.9198 8.92045C9.17529 8.6654 9.30303 8.3588 9.30303 8.00065C9.30303 7.6425 9.1755 7.33568 8.92045 7.0802C8.6654 6.82472 8.3588 6.69698 8.00065 6.69698C7.6425 6.69698 7.33568 6.8245 7.0802 7.07955C6.82472 7.3346 6.69697 7.6412 6.69697 7.99935C6.69697 8.35751 6.8245 8.66432 7.07955 8.9198C7.3346 9.17529 7.6412 9.30303 7.99935 9.30303Z" />
</svg>
